<svg xmlns="http://www.w3.org/2000/svg" width="270.745" height="304.701" viewBox="0 0 270.745 304.701"><defs><style>.cls-1{fill:#7b898f}.cls-2{fill:#fff}</style></defs><g id="Group_17" data-name="Group 17" transform="translate(-56.752 -51.304)"><g id="Group_15" data-name="Group 15" transform="translate(56.752 51.304)"><g id="Group_13" data-name="Group 13" transform="translate(0 74.134)"><path id="Path_14" data-name="Path 14" class="cls-1" d="M168.6 128.749c.352.111.706.208 1.061.293.2.048.393.1.591.134.347.07.694.124 1.045.17.2.028.409.061.616.08.357.033.716.047 1.073.057.156 0 .31.025.465.025h.134c.182 0 .364-.016.545-.023.309-.013.617-.029.925-.059.2-.02.4-.051.594-.077.29-.041.578-.084.866-.139.2-.039.406-.085.609-.133q.42-.1.837-.218c.2-.059.4-.12.6-.185q.415-.14.825-.3c.193-.075.385-.151.575-.234.278-.123.554-.259.827-.4.177-.09.354-.175.529-.272.295-.164.585-.344.873-.527.142-.092.288-.175.431-.27.424-.29.84-.6 1.243-.93s.773-.683 1.133-1.041c.128-.126.246-.257.367-.386a16.23 16.23 0 0 0 1.051-1.223c.157-.2.306-.411.454-.619s.292-.409.426-.619c.07-.111.131-.224.2-.337a16.173 16.173 0 0 0 .961-1.844c.013-.029.03-.059.043-.09.151-.347.283-.7.408-1.053l.056-.162a16.117 16.117 0 0 0-3.034-15.6c-4.125-4.713-11.489-6.185-16.793-5.6-7.952 1.177-19.148 4.713-30.047 17.084l2.651 3.241c8.543-7.069 16.5-8.248 15.909-5.008a14.148 14.148 0 0 0 1.968 9.354c.047.08.092.16.141.239a15.234 15.234 0 0 0 1.132 1.6 17.187 17.187 0 0 0 5.76 4.323l.013.02c.1.047.21.079.313.124.357.154.717.3 1.082.427.18.061.36.12.542.178z" transform="translate(-4.261 -96.28)"/><path id="Path_15" data-name="Path 15" class="cls-1" d="M227.411 204.949V108.8l-33.54 4.472v3.228c12.173.747 11.677 2.486 11.677 17.639v89.936s0 4.721 6.211 3.727l28.321-4.97v-2.98c-10.434-1.238-12.669-2.977-12.669-14.903z" transform="translate(30.665 -88.782)"/><path id="Path_16" data-name="Path 16" class="cls-1" d="M203.668 210.126c-14.41 0-25.59-7.205-25.59-25.839v-66.848c-.293.269-.568.549-.878.807a23.563 23.563 0 0 1-14.965 5.409 23.139 23.139 0 0 1-5.555-.7c.036 1.767.031 3.806.031 6.18v55.9c0 30.807 17.391 37.516 35.28 37.516 11.179 0 22.608-5.962 29.811-13.665l-2.235-3.478a26.69 26.69 0 0 1-15.899 4.718z" transform="translate(6.955 -83.275)"/><path id="Path_17" data-name="Path 17" class="cls-1" d="M182.152 207.929V96.576l-40.652 8.543v3.535c12.08 3.239 14.73 7.364 14.73 17.674v81.6a83.8 83.8 0 0 1-.989 10.66c-4.521 10.3-20.1 22.11-38.439 20.6-17.838-1.759-36.681-15.578-36.681-48.991 0-38.944 18.843-51 31.154-53.766v-3.517c-34.671 3.267-54.52 31.154-54.52 60.048C56.752 229.9 82.936 255 110.823 255a48.611 48.611 0 0 0 39.556-19.672l38.968-.285-.868-3.47c-10.604-2.654-6.327-7.147-6.327-23.644z" transform="translate(-56.752 -96.576)"/><path id="Path_18" data-name="Path 18" class="cls-1" d="M112.847 129.07a11.784 11.784 0 0 0-7.035 5.276c-3.517 5.276-1.507 12.561 4.02 15.828s12.814 1.005 16.079-4.272c2.514-4.018 1.759-8.793-.251-12.311s-8.291-13.064-27.637-14.823v3.267c12.061 1.506 16.833 7.035 14.824 7.035z" transform="translate(-30.44 -82.428)"/></g><g id="Group_14" data-name="Group 14" transform="translate(23.002)"><path id="Path_19" data-name="Path 19" class="cls-2" d="M137.685 156.365v3.607c12.213 5 23.869 23.313 23.869 56.341H96.888c0-29.7 12.489-51.345 26.644-56.341v-3.607C93 160.251 70.8 185.783 70.8 223.528c0 36.635 24.7 65.5 59.116 65.5 32.749 0 48.291-22.2 51.066-35.246l-3.054-1.389c-5.273 13.6-24.7 23.869-41.629 22.2-21.648-2.22-38.3-17.207-39.41-54.674h88.533c-.001-40.241-18.595-60.502-47.737-63.554z" transform="translate(-70.799 15.675)"/><path id="Path_20" data-name="Path 20" class="cls-2" d="M190.114 172.191l-45.793-29.973c-36.356-23.867-23.869-57.45.279-65.218v-3.611C114.069 77 102.969 94.205 102.969 94.205c-21.37 33.026 4.163 58 30.528 75.488l45.793 29.973c29.7 20.816 27.754 61.89-4.441 69.383v3.608c34.414-3.329 44.128-22.2 44.128-22.2 14.71-23.036 8.323-53.566-28.863-78.266z" transform="translate(-55.369 -37.224)"/><path id="Path_21" data-name="Path 21" class="cls-2" d="M243.152 200.062c-2.22 5.83-8.882 11.658-16.93 11.658-13.043 0-21.093-7.495-21.093-29.7V98.208h32.194l.833-3.607h-33.027V51.3l-24.146 3.89v30.317h.026v9.43h-32.388c23.351 9.07 30.216 30.925 32.287 51.646h.075v36.271c0 33.582 12.213 42.463 32.472 42.463 16.1 0 28.585-11.656 32.47-23.867zm-62.169-101.83l-.056-.025h.056z" transform="translate(-21.186 -51.304)"/></g></g><g id="Group_16" data-name="Group 16" transform="translate(241.17 282.971)"><path id="Path_22" data-name="Path 22" class="cls-1" d="M188.88 212.621h-2.26l-3.969-13.171q-.282-.877-.632-2.207a13.236 13.236 0 0 1-.364-1.6 30.255 30.255 0 0 1-.942 3.888l-3.848 13.09h-2.26l-5.234-19.67h2.429l3.1 12.149a45.514 45.514 0 0 1 .942 4.628 33.546 33.546 0 0 1 1.076-4.816l3.526-11.961h2.42l3.7 12.069a36.736 36.736 0 0 1 1.089 4.708 40.8 40.8 0 0 1 .969-4.654l3.095-12.123h2.422z" transform="translate(-169.372 -192.668)"/><path id="Path_23" data-name="Path 23" class="cls-1" d="M186.8 212.621v-19.67h2.286v19.67z" transform="translate(-158.261 -192.668)"/><path id="Path_24" data-name="Path 24" class="cls-1" d="M207.276 212.621h-2.61l-10.749-16.508h-.11q.216 2.906.216 5.328v11.179h-2.112v-19.67h2.582l10.724 16.441h.108c-.018-.242-.061-1.02-.123-2.335s-.084-2.253-.067-2.816v-11.289h2.14z" transform="translate(-155.003 -192.668)"/><path id="Path_25" data-name="Path 25" class="cls-1" d="M215.983 212.621h-10.965v-19.67h10.965v2.03H207.3v6.339h8.155v2.017H207.3v7.238h8.679z" transform="translate(-146.647 -192.668)"/><path id="Path_26" data-name="Path 26" class="cls-1" d="M226.392 207.5a4.829 4.829 0 0 1-1.883 4.05A8.175 8.175 0 0 1 219.4 213a12.826 12.826 0 0 1-5.381-.9v-2.207a14.111 14.111 0 0 0 2.636.809 13.914 13.914 0 0 0 2.825.295 5.692 5.692 0 0 0 3.444-.868 2.844 2.844 0 0 0 1.158-2.415 3.1 3.1 0 0 0-.411-1.674 3.791 3.791 0 0 0-1.372-1.2 19.063 19.063 0 0 0-2.926-1.253 9.305 9.305 0 0 1-3.92-2.327 5.134 5.134 0 0 1-1.177-3.511 4.367 4.367 0 0 1 1.708-3.619 7.1 7.1 0 0 1 4.521-1.348 13.335 13.335 0 0 1 5.4 1.077l-.714 1.991a12.182 12.182 0 0 0-4.737-1.023 4.588 4.588 0 0 0-2.838.781 2.574 2.574 0 0 0-1.022 2.166 3.329 3.329 0 0 0 .375 1.675 3.573 3.573 0 0 0 1.272 1.2 15.741 15.741 0 0 0 2.738 1.2 10.829 10.829 0 0 1 4.258 2.37 4.65 4.65 0 0 1 1.155 3.281z" transform="translate(-140.91 -192.778)"/></g></g></svg>